Coordinates
nRows=115
nColumns=2
inDegrees=yes
endheader
time	ankle_angle_r	
4.00806	  9.229434	
4.07964	  9.162045	
4.15121	  9.217609	
4.22278	  9.216309	
4.29435	  9.285208	
4.36593	  9.231620	
4.4375	  9.246463	
4.50907	  9.307082	
4.58065	  9.284375	
4.65222	  9.209485	
4.72379	  9.238183	
4.79536	  9.307861	
4.86694	  9.323120	
4.93851	  9.295878	
5.01008	  9.323120	
5.08165	  9.332804	
5.15323	  9.333012	
5.2248	  9.317961	
5.29637	  9.348282	
5.36794	  9.368896	
5.43952	  9.353638	
5.51109	  9.338379	
5.58266	  9.331359	
5.65423	  9.357549	
5.72581	  9.258382	
5.79738	  9.224577	
5.86895	  9.338379	
5.94052	  9.262085	
6.0121	  9.283989	
6.08367	  9.231567	
6.15524	  9.234023	
6.22681	  9.270602	
6.29839	  9.288525	
6.36996	  9.311523	
6.44153	  9.309484	
6.5131	  9.370312	
6.58468	  9.321913	
6.65625	  9.339378	
6.72782	  9.384155	
6.7994	  9.367730	
6.87097	  9.383780	
6.94254	  9.338379	
7.01411	  9.399414	
7.08569	  9.399165	
7.15726	  9.308318	
7.22883	  9.382825	
7.3004	  9.307861	
7.37198	  9.320958	
7.44355	  9.263374	
7.51512	  9.306364	
7.58669	  9.321415	
7.65827	  9.233480	
7.72984	  9.251069	
7.80141	  9.242167	
7.87298	  9.307861	
7.94456	  9.334102	
8.01613	  9.332472	
8.0877	  9.368896	
8.15927	  9.365527	
8.23085	  9.365319	
8.30242	  9.323120	
8.37399	  9.360909	
8.44556	  9.399414	
8.51714	  9.336349	
8.58871	  9.338379	
8.66028	  9.343987	
8.73185	  9.312895	
8.80343	  9.292603	
8.875	  9.191240	
8.94657	  9.271687	
9.01815	  9.228040	
9.08972	  9.277344	
9.16129	  9.268367	
9.23286	  9.290323	
9.30444	  9.316422	
9.37601	  9.202497	
9.44758	  9.277344	
9.51915	  9.262700	
9.59073	  9.285072	
9.6623	  9.163012	
9.73387	  9.262085	
9.80544	  9.299707	
9.87702	  9.248291	
9.94859	  9.307861	
10.0202	  9.277344	
10.0917	  9.393141	
10.1633	  9.372025	
10.2349	  9.317264	
10.3065	  9.353638	
10.378	  9.349260	
10.4496	  9.389388	
10.5212	  9.302836	
10.5927	  9.327937	
10.6643	  9.384155	
10.7359	  9.323120	
10.8075	  9.323120	
10.879	  9.262085	
10.9506	  9.292603	
11.0222	  9.312414	
11.0937	  9.228207	
11.1653	  9.311014	
11.2369	  9.203995	
11.3085	  9.234303	
11.38	  9.188319	
11.4516	  9.190432	
11.5232	  9.368896	
11.5948	  9.321216	
11.6663	  9.248523	
11.7379	  9.249803	
11.8095	  9.338379	
11.881	  9.322048	
11.9526	  9.278208	
12.0242	  9.323776	
12.0958	  9.293499	
12.1673	  9.307861	
